<?xml version="1.0" standalone="no"?>
<!DOCTYPE svg PUBLIC "-//W3C//DTD SVG 20010904//EN"
 "http://www.w3.org/TR/2001/REC-SVG-20010904/DTD/svg10.dtd">
<svg version="1.0" xmlns="http://www.w3.org/2000/svg"
 width="512.000000pt" height="512.000000pt" viewBox="0 0 512.000000 512.000000"
 preserveAspectRatio="xMidYMid meet">

<g transform="translate(0.000000,512.000000) scale(0.100000,-0.100000)"
fill="#000000" stroke="none">
<path d="M1530 4371 c-329 -70 -604 -298 -732 -606 -49 -118 -70 -219 -76
-357 l-5 -128 482 0 481 0 0 136 c0 78 5 154 12 178 16 55 99 138 154 154 59
17 1369 17 1428 0 55 -16 138 -99 154 -154 7 -24 12 -100 12 -178 l0 -136 480
0 480 0 0 96 c0 171 -56 374 -142 516 -191 316 -512 498 -878 498 -263 0 -469
-80 -684 -264 -131 -112 -141 -112 -272 0 -159 136 -301 208 -479 245 -118 24
-299 24 -415 0z"/>
<path d="M1865 3575 c-25 -24 -25 -24 -25 -240 l0 -215 -735 0 -736 0 -24 -25
c-33 -32 -33 -78 0 -110 l24 -25 736 0 735 0 0 -215 c0 -216 0 -216 25 -240
l24 -25 671 0 671 0 24 25 c25 24 25 24 25 240 l0 215 735 0 736 0 24 25 c16
15 25 36 25 55 0 19 -9 40 -25 55 l-24 25 -736 0 -735 0 0 215 c0 216 0 216
-25 240 l-24 25 -671 0 -671 0 -24 -25z m590 -320 c21 -20 25 -34 25 -80 l0
-55 80 0 80 0 0 55 c0 67 29 105 80 105 51 0 80 -38 80 -105 l0 -55 55 0 c67
0 105 -29 105 -80 0 -51 -38 -80 -105 -80 l-55 0 0 -55 c0 -67 -29 -105 -80
-105 -51 0 -80 38 -80 105 l0 55 -80 0 -80 0 0 -55 c0 -67 -29 -105 -80 -105
-51 0 -80 38 -80 105 l0 55 -55 0 c-67 0 -105 29 -105 80 0 51 38 80 105 80
l55 0 0 55 c0 67 29 105 80 105 19 0 40 -9 55 -25z"/>
<path d="M831 2713 c63 -287 157 -638 255 -958 78 -249 225 -666 266 -751 147
-304 557 -370 795 -128 64 66 118 171 132 261 6 37 25 212 42 388 17 176 35
337 40 358 21 80 111 147 199 147 88 0 178 -67 199 -147 5 -21 23 -182 40
-358 40 -408 45 -441 88 -527 130 -260 463 -349 709 -190 107 70 159 146 230
338 206 566 340 1023 473 1615 l9 39 -434 0 -434 0 0 -136 c0 -78 -5 -154 -12
-178 -16 -55 -99 -138 -154 -154 -59 -17 -1369 -17 -1428 0 -55 16 -138 99
-154 154 -7 24 -12 100 -12 178 l0 136 -434 0 -434 0 19 -87z"/>
</g>
</svg>
